<svg width="32" height="32" viewBox="0 0 32 32" fill="none" xmlns="http://www.w3.org/2000/svg">
<path d="M27 17V0H24V2.2C18.6762 2.64992 13.3238 2.64992 8 2.2V0H5V17H3V21H8.38L13.88 26.5L8.38 32H12.62L16 28.62L19.38 32H23.62L18.12 26.5L23.62 21H29V17H27ZM25 1H26V2L25.35 2.06H25V1ZM6 1H7V2.13H6.65L6 2V1ZM6 3.05H6.56C12.8386 3.66 19.1614 3.66 25.44 3.05H26V10.05L25.35 10.11C19.1311 10.71 12.8689 10.71 6.65 10.11L6 10V3.05ZM26 11.05V17H25V11.13H25.44L26 11.05ZM24 11.21V17H8V11.21C10.87 11.43 13.45 11.55 16 11.55C18.55 11.55 21.13 11.43 24 11.21ZM6 11.05H6.56H7V17H6V11.05ZM9.8 21H11.2L15.29 25.09L14.59 25.79L9.8 21ZM12.62 21H19.38L16 24.38L12.62 21ZM21.2 31H19.8L16.71 27.91L17.41 27.21L21.2 31ZM12.2 31H10.8L20.8 21H22.2L12.2 31ZM28 20H4V18H28V20Z" fill="#232221"/>
</svg>
