<svg width="200" height="77" viewBox="0 0 200 77" fill="none" xmlns="http://www.w3.org/2000/svg">
<path d="M8.84873 76.2322H8.78999C3.17145 76.2322 0 72.6104 0 67.2464V64.5644C0 59.2003 3.17145 55.5786 8.78999 55.5786H8.84873C13.508 55.5786 15.172 57.7712 16.1313 60.6294H15.172C14.3694 57.7908 12.1181 56.2638 8.84873 56.2638H8.78999C4.87463 56.2638 2.87779 59.5723 2.87779 64.584V67.266C2.87779 72.2776 4.87463 75.5861 8.78999 75.5861H8.84873C14.2128 75.5861 14.4869 71.8861 14.526 67.2464C14.4869 66.9136 14.1149 66.6004 13.6255 66.6004H10.5715V65.7977H17.4038C17.4038 71.4358 16.4641 76.2713 8.82915 76.2713" fill="#232221"/>
<path d="M38.5415 65.7585C43.0638 65.7585 43.514 63.3897 43.514 61.1188V59.8855C43.514 57.9082 41.5564 56.6357 37.8368 56.6357H34.2738C34.5283 56.9881 34.6653 57.4579 34.6653 58.1431V65.7585H38.5415ZM49.2892 75.821V75.958C47.5273 75.958 45.0606 76.2517 44.1209 74.5289L40.3034 67.1485C39.7944 66.4046 39.4616 66.5612 38.5415 66.5612H34.6653V74.8813C34.6653 75.4099 35.0177 75.821 35.6246 75.821V75.958C33.5103 75.958 31.7679 76.0363 31.7679 73.7263V56.8511C31.7679 56.1267 31.5722 55.9701 30.7695 55.9701V55.8331H37.8172C43.24 55.8331 46.3918 57.4384 46.3918 59.8855V61.1188C46.3918 63.0569 45.3738 65.367 41.8109 66.2088C42.4569 66.2675 43.0246 66.4829 43.4162 67.1485L47.1945 74.5289C47.586 75.0967 47.8993 75.821 49.2892 75.821Z" fill="#232221"/>
<path d="M74.2486 68.9887L69.4719 58.5934L65.2433 68.9887H74.2682H74.2486ZM81.6878 75.8406V75.9776C79.9259 75.9776 77.6158 76.1342 76.8132 74.5289L74.6401 69.8109H64.9105L62.385 75.9776H61.4258L68.9629 57.5167L68.865 57.3013C68.5126 56.6749 68.1994 55.9897 67.1031 55.9897V55.8526C68.865 55.8526 71.175 55.696 71.9777 57.3013L79.9259 74.5289C80.2783 75.1554 80.5915 75.8406 81.6878 75.8406" fill="#232221"/>
<path d="M92.457 55.8331C94.1994 55.8331 96.4703 55.6765 97.5862 57.2818L103.107 66.5612L110.292 55.7939H111.486L103.694 67.4617V74.8618C103.694 75.4491 104.144 75.8015 104.653 75.8015V75.9385H99.8375V75.8015C100.346 75.8015 100.797 75.4295 100.797 74.8618V67.7945L94.4734 57.2426C93.984 56.6162 93.5533 55.931 92.457 55.931V55.7939V55.8331Z" fill="#232221"/>
<path d="M137.725 56.6357H126.743C126.997 56.9881 127.134 57.458 127.134 58.1432V65.367H135.474V66.1697H127.134V74.8813C127.134 75.5274 127.428 75.821 128.191 75.821V75.9581C125.979 75.9581 124.237 76.056 124.237 73.7263V56.9294C124.237 56.2638 124.041 55.931 123.238 55.931V55.7939H137.706V56.6162L137.725 56.6357Z" fill="#232221"/>
<path d="M153.366 67.2464C153.366 72.2581 155.363 75.5665 159.278 75.5665H159.337C163.292 75.5665 165.249 72.2581 165.249 67.2464V64.5644C165.249 59.5527 163.292 56.2442 159.337 56.2442H159.278C155.363 56.2442 153.366 59.5527 153.366 64.5644V67.2464ZM159.278 55.5786H159.337C164.995 55.5786 168.127 59.2003 168.127 64.5644V67.2464C168.127 72.6104 164.975 76.2322 159.337 76.2322H159.278C153.66 76.2322 150.488 72.6104 150.488 67.2464V64.5644C150.488 59.2003 153.542 55.5786 159.278 55.5786" fill="#232221"/>
<path d="M181.168 55.8331C182.91 55.8331 185.181 55.6765 186.297 57.2818L191.152 64.4665L198.317 55.8331H199.511L191.72 65.2495L197.945 74.5094C198.435 75.1358 198.865 75.821 200.001 75.821V75.9581C198.239 75.9581 195.948 76.1147 194.833 74.5094L190.056 67.4226L182.989 75.9581H181.834L189.527 66.6787L183.204 57.2818C182.715 56.6553 182.284 55.9701 181.188 55.9701V55.8331H181.168Z" fill="#232221"/>
<path d="M81.5366 33.5548C80.4403 36.4914 80.0683 39.2321 80.3228 40.9549C83.2398 36.3543 86.3917 33.3003 90.7573 32.2432C87.0573 31.7733 84.0816 32.2432 81.5366 33.5548" fill="#FFDA64"/>
<path d="M89.3704 6.47993C89.3117 5.20743 89.7228 2.7016 89.7228 2.7016C89.7228 2.7016 88.0196 3.77832 86.2969 5.95135C87.0212 6.14712 88.1175 6.32331 89.39 6.47993" fill="#FFDA64"/>
<path d="M76.1104 18.5393C76.0516 19.9096 76.1691 23.179 77.0501 25.9197C81.9247 16.8361 86.6427 15.8572 98.5062 7.75244L76.1299 18.5197L76.1104 18.5393Z" fill="#FFDA64"/>
<path d="M72.9048 40.759C72.1021 33.3002 81.8905 10.3562 106.303 18.5393C115.093 21.9848 122.63 26.8594 126.878 19.3224C128.151 25.215 123.805 44.1458 105.285 35.7277C87.8615 27.3293 79.972 30.5399 72.9048 40.759Z" fill="#D74022"/>
<path d="M98.5052 7.75242C98.5052 7.75242 87.8946 7.04766 85.7803 6.22543C85.2517 5.34447 86.1131 0 86.1131 0C86.1131 0 76.4226 6.1667 76.1289 18.5393L98.5052 7.772V7.75242Z" fill="#D74022"/>
</svg>
